<svg width="110" height="91" viewBox="0 0 110 91" fill="none" xmlns="http://www.w3.org/2000/svg">
<path d="M0.0649414 45.4535V53.2854L7.63449 61V46.8839H20.1745L12.8783 39.8492H6.03822L0.0649414 45.4535Z" fill="#493FD6"/>
<path d="M0 29.2664C0 27.04 1.8049 25.2351 4.03135 25.2351V33.2978C4.03135 35.5242 2.22645 37.3291 0 37.3291V29.2664Z" fill="url(#paint0_linear_303_3100)"/>
<path d="M8.00488 26.8984C8.00488 24.67 9.81138 22.8635 12.0398 22.8635V33.2762C12.0398 35.5046 10.2333 37.3111 8.00488 37.3111V26.8984Z" fill="url(#paint1_linear_303_3100)"/>
<path d="M16.0898 24.0313C16.0898 21.8049 17.8947 20 20.1212 20V33.3058C20.1212 35.5323 18.3163 37.3371 16.0898 37.3371V24.0313Z" fill="url(#paint2_linear_303_3100)"/>
<path d="M12.0396 29.8553L16.107 37.3352V29.1437L12.0396 22.8635V29.8553Z" fill="#493FD6"/>
<path d="M3.96973 31.0644L8.00465 37.3111V30.4536L3.96973 25.2064V31.0644Z" fill="#493FD6"/>
<path d="M25.4357 61V29.7273H44.8285V33.7891H30.1541V43.3175H43.4389V47.364H30.1541V61H25.4357ZM50.2646 61V37.5455H54.8303V61H50.2646ZM52.5703 33.9265C51.7763 33.9265 51.0942 33.6618 50.5241 33.1325C49.9643 32.5929 49.6843 31.9516 49.6843 31.2084C49.6843 30.4551 49.9643 29.8138 50.5241 29.2844C51.0942 28.7449 51.7763 28.4751 52.5703 28.4751C53.3643 28.4751 54.0413 28.7449 54.6012 29.2844C55.1713 29.8138 55.4563 30.4551 55.4563 31.2084C55.4563 31.9516 55.1713 32.5929 54.6012 33.1325C54.0413 33.6618 53.3643 33.9265 52.5703 33.9265ZM65.5383 47.0739V61H60.9726V37.5455H65.355V41.3629H65.6452C66.1847 40.121 67.0296 39.1233 68.18 38.37C69.3405 37.6167 70.8013 37.2401 72.5624 37.2401C74.1607 37.2401 75.5604 37.576 76.7616 38.2479C77.9629 38.9096 78.8943 39.897 79.556 41.2102C80.2177 42.5234 80.5486 44.1471 80.5486 46.0813V61H75.9829V46.631C75.9829 44.931 75.54 43.6025 74.6544 42.6456C73.7687 41.6785 72.5522 41.195 71.0049 41.195C69.9462 41.195 69.0045 41.424 68.18 41.8821C67.3656 42.3402 66.7191 43.0121 66.2407 43.8977C65.7724 44.7732 65.5383 45.8319 65.5383 47.0739ZM87.0383 61V29.7273H106.645V33.7891H91.7567V43.3175H105.622V47.364H91.7567V56.9382H106.828V61H87.0383Z" fill="white"/>
<defs>
<linearGradient id="paint0_linear_303_3100" x1="2.01567" y1="25.2351" x2="2.01567" y2="37.3291" gradientUnits="userSpaceOnUse">
<stop stop-color="#09FF7C"/>
<stop offset="1" stop-color="#2073D3"/>
</linearGradient>
<linearGradient id="paint1_linear_303_3100" x1="10.0223" y1="22.8635" x2="10.0223" y2="37.3111" gradientUnits="userSpaceOnUse">
<stop stop-color="#09FF7C"/>
<stop offset="1" stop-color="#2073D3"/>
</linearGradient>
<linearGradient id="paint2_linear_303_3100" x1="18.1055" y1="20" x2="18.1055" y2="37.3371" gradientUnits="userSpaceOnUse">
<stop stop-color="#09FF7C"/>
<stop offset="1" stop-color="#2073D3"/>
</linearGradient>
</defs>
</svg>
